<?xml version="1.0" standalone="no"?>
<!DOCTYPE svg PUBLIC "-//W3C//DTD SVG 20010904//EN"
 "http://www.w3.org/TR/2001/REC-SVG-20010904/DTD/svg10.dtd">
<svg version="1.0" xmlns="http://www.w3.org/2000/svg"
 width="176.000000pt" height="176.000000pt" viewBox="0 0 176.000000 176.000000"
 preserveAspectRatio="xMidYMid meet">
<metadata>
Created by potrace 1.14, written by Peter Selinger 2001-2017
</metadata>
<g transform="translate(0.000000,176.000000) scale(0.100000,-0.100000)"
fill="#000000" stroke="none">
<path d="M743 1703 c-348 -55 -638 -349 -689 -698 -10 -70 -12 -183 -3 -230 4
-22 10 -57 13 -78 10 -65 65 -193 115 -269 141 -212 350 -344 594 -376 319
-41 627 102 808 376 121 183 160 402 114 637 -9 49 -49 155 -77 205 -178 322
-518 490 -875 433z m267 -28 c149 -21 340 -119 445 -230 119 -125 199 -285
222 -445 8 -58 8 -182 0 -240 -45 -313 -284 -578 -595 -662 -112 -30 -287 -29
-401 1 -286 75 -508 297 -581 580 -120 460 196 934 663 998 23 3 43 6 44 7 6
5 150 -2 203 -9z"/>
<path d="M760 1639 c-308 -47 -575 -302 -635 -609 -16 -82 -13 -238 6 -319 84
-362 398 -606 768 -597 129 3 207 23 327 82 345 169 508 586 373 954 -67 182
-229 354 -411 434 -122 53 -291 75 -428 55z m185 -79 c32 -12 41 -35 25 -64
-9 -18 -9 -29 -1 -45 10 -18 9 -21 -9 -21 -12 0 -25 10 -32 25 -11 25 -11 25
-22 4 -6 -12 -15 -21 -21 -20 -10 1 -16 95 -8 119 6 15 32 16 68 2z m-195 -26
c0 -8 -7 -14 -16 -14 -13 0 -15 -6 -9 -27 3 -16 9 -38 11 -49 4 -13 0 -23 -10
-27 -11 -4 -19 7 -31 42 -11 33 -21 48 -32 47 -9 0 -18 4 -20 11 -3 7 15 18
44 26 52 16 63 14 63 -9z m444 -45 c51 -40 25 -119 -40 -119 -58 0 -95 67 -61
111 25 33 65 37 101 8z m-659 -28 c3 -5 -5 -17 -17 -25 -26 -19 -18 -32 11
-17 27 15 41 -7 16 -25 -25 -18 -13 -29 15 -14 46 25 39 -15 -8 -42 l-29 -18
-36 54 -36 55 32 20 c36 23 43 25 52 12z m494 -131 c81 -27 134 -61 197 -126
217 -226 150 -610 -132 -748 -326 -160 -699 78 -688 439 9 316 324 536 623
435z m354 15 c10 -4 24 -19 32 -34 28 -55 -38 -122 -92 -92 -51 27 -53 103 -4
127 24 12 34 12 64 -1z m-1018 -25 c4 -6 1 -18 -6 -26 -6 -8 -9 -18 -5 -22 4
-4 12 1 18 11 8 14 13 16 24 6 11 -9 12 -15 3 -26 -7 -7 -9 -16 -5 -20 3 -4
12 2 20 12 7 10 18 15 24 11 17 -10 15 -17 -13 -50 l-24 -30 -48 39 c-26 21
-50 40 -51 41 -6 4 41 64 49 64 4 0 11 -5 14 -10z m1165 -212 c19 -50 10 -68
-21 -42 -14 12 -21 12 -54 -2 -30 -12 -39 -13 -46 -3 -11 19 -3 27 42 40 26 8
39 18 38 28 -5 50 19 38 41 -21z m-1262 20 c7 -7 24 -12 40 -13 25 0 27 -3 26
-43 -1 -61 -11 -66 -78 -41 -53 21 -57 24 -51 48 7 26 32 61 45 61 3 0 11 -5
18 -12z m372 -777 c0 -10 -7 -24 -15 -31 -8 -7 -12 -16 -9 -22 9 -14 -16 -38
-40 -38 -11 0 -32 9 -45 19 l-23 18 28 55 29 56 38 -19 c23 -12 37 -27 37 -38z
m536 37 c4 -6 1 -16 -8 -21 -13 -9 -12 -15 9 -53 22 -39 22 -43 7 -52 -14 -8
-21 -2 -39 32 -17 31 -27 40 -43 38 -35 -5 -26 21 16 44 45 26 49 27 58 12z
m-378 -64 c32 -9 29 -38 -3 -32 -17 4 -25 1 -25 -8 0 -8 9 -14 21 -14 12 0 19
-5 16 -12 -2 -7 -11 -13 -20 -13 -28 0 -30 -14 -3 -21 15 -3 25 -11 23 -18 -5
-15 -52 -17 -72 -2 -15 11 -16 19 -5 69 12 59 18 64 68 51z m202 -8 c0 -8 -10
-16 -22 -18 -13 -2 -22 -7 -20 -13 2 -5 12 -9 22 -7 27 4 26 -24 -1 -31 -28
-8 -16 -25 14 -20 17 3 24 0 24 -11 0 -9 -1 -16 -1 -17 -1 0 -20 -2 -43 -5
-41 -6 -43 -5 -43 20 0 32 0 30 -10 66 -8 27 -6 32 13 40 34 14 67 12 67 -4z"/>
<path d="M910 1514 c0 -17 22 -14 28 4 2 7 -3 12 -12 12 -9 0 -16 -7 -16 -16z"/>
<path d="M1131 1461 c-23 -23 -19 -47 11 -57 13 -4 24 0 33 13 19 24 18 27 -4
47 -18 17 -20 17 -40 -3z"/>
<path d="M768 1260 c-217 -68 -335 -293 -265 -501 21 -61 64 -139 77 -139 4 0
12 16 19 35 7 19 17 35 22 35 12 0 12 -1 -6 -43 -18 -45 -6 -57 62 -62 147
-10 330 82 389 198 19 36 22 103 6 134 -13 24 -70 53 -104 53 -73 1 -88 30
-35 70 61 47 116 106 122 133 9 34 -17 67 -46 60 -10 -3 -19 0 -19 6 0 6 6 11
13 12 6 0 1 5 -13 10 -46 19 -161 19 -222 -1z m188 -45 c-4 -12 -2 -14 11 -7
9 5 24 7 35 4 14 -3 16 -7 7 -18 -6 -8 -17 -14 -24 -14 -7 0 -18 -7 -25 -15
-11 -13 -10 -15 6 -9 13 4 11 -1 -9 -18 -18 -16 -26 -30 -21 -41 4 -12 -1 -20
-21 -27 -14 -5 -23 -15 -20 -20 3 -6 -2 -13 -12 -17 -33 -12 -67 -44 -80 -74
-15 -35 -1 -39 15 -4 7 15 17 22 26 19 9 -3 17 3 21 17 7 21 8 21 18 3 6 -10
14 -21 18 -24 15 -10 -4 -52 -27 -61 -13 -5 -23 -14 -22 -21 2 -8 -7 -12 -24
-11 -21 2 -32 -6 -49 -33 -12 -19 -24 -33 -26 -30 -3 3 4 17 14 33 24 34 34
71 22 78 -5 3 -1 24 7 46 10 24 14 53 11 74 -3 19 -1 37 4 40 5 4 9 15 9 27 0
13 5 18 14 15 10 -4 18 4 25 24 5 16 16 29 24 29 7 0 23 11 35 25 24 28 47 34
38 10z m-208 -93 c16 -15 27 -33 24 -40 -2 -7 0 -12 5 -12 9 0 9 -67 -1 -109
-3 -13 -12 -34 -21 -47 -17 -26 -20 -59 -5 -49 6 4 7 -2 2 -17 -10 -26 -9 -61
3 -101 11 -41 -8 -75 -47 -85 -22 -5 -35 -16 -39 -33 -7 -22 -13 -10 -10 18 1
7 -5 25 -12 40 -22 42 -5 93 29 93 49 0 68 89 34 155 -12 24 -16 43 -11 49 6
7 4 21 -4 36 -20 35 -18 43 6 37 15 -4 19 -2 15 8 -2 7 -8 30 -12 49 -8 44 5
46 44 8z m23 -229 c-12 -20 -14 -14 -5 12 4 9 9 14 11 11 3 -2 0 -13 -6 -23z"/>
<path d="M1078 1201 c5 -38 -20 -83 -69 -123 -110 -89 -107 -83 -44 -90 123
-14 171 -107 115 -223 -53 -110 -233 -206 -379 -202 -67 2 -68 -4 -8 -34 121
-62 255 -61 380 3 52 26 130 104 158 159 89 174 38 403 -114 508 l-43 29 4
-27z"/>
<path d="M1332 1311 c-8 -4 -12 -19 -10 -32 4 -29 45 -34 61 -7 19 30 -19 60
-51 39z"/>
<path d="M237 1094 c-8 -8 1 -24 14 -24 5 0 9 7 9 15 0 15 -12 20 -23 9z"/>
<path d="M287 1076 c-6 -16 2 -28 14 -20 12 7 11 34 0 34 -5 0 -11 -6 -14 -14z"/>
<path d="M580 350 c0 -5 7 -10 15 -10 8 0 15 5 15 10 0 6 -7 10 -15 10 -8 0
-15 -4 -15 -10z"/>
<path d="M557 314 c-8 -8 1 -24 14 -24 5 0 9 7 9 15 0 15 -12 20 -23 9z"/>
</g>
</svg>
